<svg width="12" height="12" viewBox="0 0 12 12" fill="none" xmlns="http://www.w3.org/2000/svg">
<path d="M6.75347 7.48125C8.82279 7.48125 10.4941 5.80645 10.4941 3.74063C10.4941 1.67803 8.81607 0 6.75347 0H2.98784C2.79369 0 2.63628 0.157406 2.63628 0.351562V5.27187H1.85815C1.664 5.27187 1.50659 5.42927 1.50659 5.62343V7.12969C1.50659 7.32384 1.664 7.48125 1.85815 7.48125H2.63628V8.28438H1.85815C1.664 8.28438 1.50659 8.44179 1.50659 8.63595V10.1422C1.50659 10.3364 1.664 10.4938 1.85815 10.4938H2.63628V11.6484C2.63628 11.8426 2.79369 12 2.98784 12H4.4941C4.68826 12 4.84566 11.8426 4.84566 11.6484V10.4937H7.13002C7.32418 10.4937 7.48158 10.3363 7.48158 10.1422V8.63592C7.48158 8.44177 7.32418 8.28436 7.13002 8.28436H4.84564V7.48125H6.75347ZM4.84564 2.20938H6.75345C7.59776 2.20938 8.28469 2.89631 8.28469 3.74063C8.28469 4.58494 7.59776 5.27187 6.75345 5.27187H4.84564V2.20938Z" fill="#9F9F9F"/>
</svg>
