<svg width="40" height="40" viewBox="0 0 40 40" fill="none" xmlns="http://www.w3.org/2000/svg">
<g clip-path="url(#clip0_0_591)">
<path d="M30.2098 23.7815C27.4295 23.7815 25.1677 26.0433 25.1677 28.8235C25.1677 31.6038 27.4295 33.8656 30.2098 33.8656C32.9905 33.8656 35.2518 31.6038 35.2518 28.8235C35.2518 26.0433 32.99 23.7815 30.2098 23.7815ZM30.2098 31.3445C28.8194 31.3445 27.6887 30.2138 27.6887 28.8235C27.6887 27.4332 28.8194 26.3025 30.2098 26.3025C31.6001 26.3025 32.7308 27.4332 32.7308 28.8235C32.7308 30.2139 31.6001 31.3445 30.2098 31.3445Z" fill="#29ABE2"/>
<path d="M12.9829 23.7815C10.2027 23.7815 7.94092 26.0433 7.94092 28.8235C7.94092 31.6038 10.2027 33.8656 12.9829 33.8656C15.7632 33.8656 18.025 31.6038 18.025 28.8235C18.025 26.0433 15.7632 23.7815 12.9829 23.7815ZM12.9829 31.3445C11.5926 31.3445 10.4619 30.2138 10.4619 28.8235C10.4619 27.4332 11.5926 26.3025 12.9829 26.3025C14.3729 26.3025 15.504 27.4332 15.504 28.8235C15.504 30.2139 14.3733 31.3445 12.9829 31.3445Z" fill="#29ABE2"/>
<path d="M33.6055 9.34966C33.3912 8.92403 32.9555 8.65552 32.479 8.65552H25.8403V11.1765H31.7017L35.134 18.0034L37.387 16.8706L33.6055 9.34966Z" fill="#29ABE2"/>
<path d="M26.4284 27.6052H16.8906V30.1262H26.4284V27.6052Z" fill="#29ABE2"/>
<path d="M9.20169 27.6052H4.832C4.13575 27.6052 3.57153 28.1695 3.57153 28.8657C3.57153 29.5619 4.13583 30.1262 4.832 30.1262H9.20177C9.89802 30.1262 10.4622 29.5619 10.4622 28.8657C10.4622 28.1694 9.89794 27.6052 9.20169 27.6052Z" fill="#29ABE2"/>
<path d="M39.7354 19.8992L37.256 16.7059C37.0178 16.3983 36.6501 16.2185 36.2606 16.2185H27.1009V7.39499C27.1009 6.69874 26.5366 6.13452 25.8404 6.13452H4.832C4.13575 6.13452 3.57153 6.69882 3.57153 7.39499C3.57153 8.09116 4.13583 8.65546 4.832 8.65546H24.5799V17.479C24.5799 18.1752 25.1442 18.7394 25.8404 18.7394H35.6433L37.479 21.1041V27.605H33.9916C33.2954 27.605 32.7311 28.1693 32.7311 28.8655C32.7311 29.5617 33.2954 30.1259 33.9916 30.1259H38.7395C39.4357 30.1259 40 29.5616 40 28.8655V20.6723C40 20.3925 39.9068 20.1202 39.7354 19.8992Z" fill="#29ABE2"/>
<path d="M9.11791 21.2185H3.31955C2.6233 21.2185 2.05908 21.7828 2.05908 22.479C2.05908 23.1752 2.62338 23.7394 3.31955 23.7394H9.11783C9.81408 23.7394 10.3783 23.1751 10.3783 22.479C10.3784 21.7828 9.81408 21.2185 9.11791 21.2185Z" fill="#29ABE2"/>
<path d="M12.0168 16.2605H1.26047C0.564297 16.2605 0 16.8248 0 17.521C0 18.2173 0.564297 18.7815 1.26047 18.7815H12.0168C12.713 18.7815 13.2773 18.2172 13.2773 17.521C13.2773 16.8249 12.713 16.2605 12.0168 16.2605Z" fill="#29ABE2"/>
<path d="M14.0759 11.3025H3.31955C2.6233 11.3025 2.05908 11.8668 2.05908 12.563C2.05908 13.2592 2.62338 13.8234 3.31955 13.8234H14.0759C14.7721 13.8234 15.3363 13.2591 15.3363 12.563C15.3364 11.8668 14.7721 11.3025 14.0759 11.3025Z" fill="#29ABE2"/>
</g>
<defs>
<clipPath id="clip0_0_591">
<rect width="40" height="40" fill="white"/>
</clipPath>
</defs>
</svg>
