<svg width="50" height="48" viewBox="0 0 50 48" fill="none" xmlns="http://www.w3.org/2000/svg">
<path d="M49.4324 22.087L29.0818 1.60233C29.0557 1.57597 29.0287 1.55038 29.0012 1.52557C26.779 -0.46964 23.4211 -0.476769 21.1904 1.50907C21.1627 1.53378 21.1357 1.55927 21.1095 1.58544L0.573426 22.0811C-0.19005 22.8432 -0.19132 24.0798 0.570692 24.8433C1.3328 25.6068 2.56942 25.6079 3.3328 24.846L4.8828 23.299V40.1627C4.8828 44.4705 8.38749 47.9752 12.6953 47.9752H37.3047C41.6125 47.9752 45.1172 44.4705 45.1172 40.1627C45.1172 39.084 44.2428 38.2096 43.1641 38.2096C42.0853 38.2096 41.2109 39.084 41.2109 40.1627C41.2109 42.3166 39.4586 44.0689 37.3047 44.0689H12.6953C10.5414 44.0689 8.78905 42.3166 8.78905 40.1627V19.4596C8.78905 19.4405 8.78681 19.4221 8.78622 19.4032L23.8228 4.39618C24.5546 3.77479 25.6278 3.77714 26.3567 4.40155L41.2109 19.3538V30.3971C41.2109 31.4758 42.0853 32.3502 43.1641 32.3502C44.2428 32.3502 45.1172 31.4758 45.1172 30.3971V23.2857L46.6613 24.8401C47.0431 25.2244 47.5448 25.4167 48.0469 25.4167C48.5446 25.4167 49.0425 25.2275 49.4234 24.8491C50.1887 24.0889 50.1928 22.8522 49.4324 22.087Z" fill="white"/>
<path d="M13.5284 40.4932C13.8694 40.7318 14.26 40.8465 14.6468 40.8465C15.2624 40.8465 15.8685 40.5562 16.2485 40.0135C16.2641 39.9911 17.1908 38.6707 18.3428 37.1777C19.2432 37.6878 20.8053 38.3073 23.2816 38.3073C25.8728 38.3073 28.2778 37.2105 30.4294 35.0473C35.8177 29.6302 35.8628 20.6085 35.8379 19.2573C35.8382 19.2507 35.8385 19.2441 35.8387 19.2375C35.8751 18.1618 35.0347 17.2595 33.9592 17.2195C33.5473 17.2046 23.7961 16.9107 18.0804 22.6572C15.8521 24.8975 14.7303 27.3144 14.7461 29.8408C14.7571 31.597 15.3222 33.0521 15.8164 34.067C14.3665 35.8943 13.1251 37.6633 13.0483 37.773C12.4297 38.6566 12.6446 39.8744 13.5284 40.4932ZM20.8498 25.4119C24.0145 22.2303 29.1012 21.4013 31.8686 21.1902C31.6652 23.9688 30.848 29.0873 27.6599 32.2924C25.7799 34.1824 24.2607 34.401 23.2815 34.401C22.2374 34.401 21.4874 34.2535 20.9548 34.0747C22.8957 32.0698 25.9877 29.6078 26.0194 29.5827C26.8639 28.9117 27.0048 27.6831 26.3339 26.8386C25.663 25.9939 24.4345 25.8528 23.59 26.5237C23.4654 26.6227 20.8278 28.7226 18.7549 30.749C18.6928 30.4511 18.6544 30.1393 18.6524 29.8161C18.6432 28.3689 19.3826 26.887 20.8498 25.4119Z" fill="white"/>
</svg>
