<svg width="44" height="39" viewBox="0 0 44 39" fill="none" xmlns="http://www.w3.org/2000/svg">
<path d="M43.8183 13.3447L37.9589 1.62598C37.6752 1.12812 37.277 0.816406 36.6484 0.816406H7.35148C6.73898 0.816406 6.32941 1.12031 6.04093 1.62598L0.181554 13.3447C-0.0897354 13.9209 0.00313542 14.4999 0.387608 14.9619L20.8954 38.4971C21.1737 38.8164 21.5761 39 21.9999 39C22.4237 39 22.8261 38.8164 23.1044 38.4971L43.6122 14.9619C43.9943 14.5022 44.0912 13.9239 43.8183 13.3447ZM34.2782 3.74609L30.539 11.2246L24.9296 3.74609H34.2782ZM27.8593 12.5352H16.1405L21.9999 4.72266L27.8593 12.5352ZM19.0702 3.74609L13.4609 11.2246L9.72159 3.74609H19.0702ZM7.35148 5.55664L10.8407 12.5352H3.86222L7.35148 5.55664ZM4.71183 15.4648H12.2431L19.4648 32.3965L4.71183 15.4648ZM21.9999 30.8721L15.4286 15.4648H28.5712L21.9999 30.8721ZM24.5351 32.3965L31.7568 15.4648H39.288L24.5351 32.3965ZM33.1591 12.5352L36.6484 5.55664L40.1376 12.5352H33.1591Z" fill="white"/>
</svg>
