<svg width="50" height="40" viewBox="0 0 50 40" fill="none" xmlns="http://www.w3.org/2000/svg">
<path d="M48.7344 16.7296C48.2896 16.2813 47.7297 15.967 47.063 15.7868V8.28398C47.063 4.24639 43.7781 0.961426 39.7404 0.961426H10.255C6.21734 0.961426 2.93248 4.24629 2.93248 8.28398V15.7868C2.26568 15.967 1.70582 16.2812 1.26109 16.7296C-0.032657 18.0335 -0.0131257 20.0407 0.00347586 22.1657C0.0109954 23.1253 0.00347586 31.716 0.00347586 31.716C0.00347586 32.5248 0.65914 33.1806 1.46803 33.1806H2.93258V37.5741C2.93258 38.3829 3.58824 39.0387 4.39713 39.0387C5.20601 39.0387 5.86168 38.383 5.86168 37.5741V33.1806H44.1341V37.5741C44.1341 38.3829 44.7898 39.0387 45.5987 39.0387C46.4076 39.0387 47.0632 38.383 47.0632 37.5741V33.1806H48.5278C49.3366 33.1806 49.9923 32.5249 49.9923 31.716C49.9922 31.5518 49.9905 22.9077 49.9963 22.1657C50.0126 20.0406 50.0282 18.0335 48.7344 16.7296ZM5.86148 8.28398C5.86148 5.86143 7.83238 3.89043 10.255 3.89043H39.7404C42.1629 3.89043 44.1339 5.86133 44.1339 8.28398V15.6065H41.2049V11.213C41.2049 8.79043 39.234 6.81943 36.8114 6.81943H27.9267C26.8023 6.81943 25.7756 7.24453 24.9977 7.9417C24.2198 7.24443 23.1931 6.81943 22.0687 6.81943H13.184C10.7615 6.81943 8.79049 8.79033 8.79049 11.213V15.6065H5.86148V8.28398ZM38.2759 11.213V15.6065H26.4623V11.213C26.4623 10.4055 27.1192 9.74844 27.9268 9.74844H36.8115C37.619 9.74844 38.2759 10.4055 38.2759 11.213ZM23.5333 11.213V15.6065H11.7196V11.213C11.7196 10.4055 12.3765 9.74844 13.1841 9.74844H22.0688C22.8762 9.74844 23.5333 10.4055 23.5333 11.213ZM47.063 30.2516H2.93248V27.3226H47.063V30.2516ZM47.0671 22.1429C47.0598 23.0727 47.0646 22.858 47.063 24.3936H2.93248C2.93102 22.9393 2.93551 23.0459 2.92838 22.1429C2.90318 18.9121 3.03355 18.5355 4.39703 18.5355H45.5985C45.9642 18.5355 46.4444 18.5802 46.6553 18.7926C47.0898 19.2306 47.0777 20.7777 47.0671 22.1429Z" fill="white"/>
</svg>
