<svg width="50" height="50" viewBox="0 0 50 50" fill="none" xmlns="http://www.w3.org/2000/svg">
<g clip-path="url(#clip0_0_110)">
<path d="M46.2388 13.5653L46.2373 13.5264C46.2156 13.0461 46.2011 12.538 46.1923 11.9727C46.1515 9.21578 43.9599 6.93536 41.2027 6.78125C35.4539 6.46043 31.0068 4.5859 27.207 0.882219L27.1746 0.85132C25.9352 -0.285075 24.0656 -0.285075 22.8258 0.85132L22.7934 0.882219C18.9936 4.5859 14.5464 6.46043 8.79768 6.78163C6.04081 6.93536 3.84889 9.21578 3.80807 11.973C3.79968 12.5346 3.7848 13.0427 3.76306 13.5264L3.76077 13.6168C3.649 19.4788 3.51015 26.7744 5.95078 33.3963C7.29279 37.0378 9.32525 40.2032 11.9913 42.8052C15.0278 45.7685 19.005 48.121 23.8123 49.7972C23.9687 49.8517 24.1312 49.896 24.2968 49.9292C24.5302 49.9757 24.7652 49.999 25.0002 49.999C25.2352 49.999 25.4705 49.9757 25.7036 49.9292C25.8692 49.896 26.0328 49.8513 26.19 49.7964C30.9915 48.1172 34.9645 45.7635 37.9983 42.8007C40.6633 40.1979 42.6957 37.0317 44.0389 33.3895C46.4887 26.7477 46.3502 19.4384 46.2388 13.5653ZM41.2862 32.3744C38.7121 39.3537 33.4573 44.1469 25.2218 47.027C25.1924 47.0369 25.1612 47.0456 25.1287 47.0521C25.0437 47.0689 24.9571 47.0689 24.8709 47.0518C24.8388 47.0453 24.8075 47.0369 24.7785 47.027C16.5342 44.1522 11.2761 39.3617 8.70384 32.382C6.45432 26.2781 6.58173 19.581 6.69426 13.6729L6.69503 13.6401C6.71792 13.1323 6.73317 12.6006 6.74157 12.0161C6.75988 10.792 7.73491 9.77921 8.96133 9.71093C12.2145 9.52935 15.0725 8.90069 17.6985 7.78909C20.3211 6.67902 22.6503 5.11423 24.8186 3.00547C24.9288 2.9124 25.0719 2.91201 25.1818 3.00547C27.3504 5.11423 29.6797 6.67902 32.3019 7.78909C34.9279 8.90069 37.7859 9.52935 41.0394 9.71093C42.2658 9.77921 43.2409 10.792 43.2588 12.0165C43.2676 12.604 43.2828 13.1358 43.3057 13.6401C43.4179 19.5551 43.5422 26.2575 41.2862 32.3744Z" fill="white"/>
<path d="M24.9993 12.54C18.1283 12.54 12.5386 18.1301 12.5386 25.0007C12.5386 31.8718 18.1283 37.4618 24.9993 37.4618C31.8699 37.4618 37.46 31.8718 37.46 25.0007C37.46 18.1301 31.8699 12.54 24.9993 12.54ZM24.9993 34.5276C19.7461 34.5276 15.4725 30.254 15.4725 25.0007C15.4725 19.7475 19.7461 15.4739 24.9993 15.4739C30.2521 15.4739 34.5257 19.7475 34.5257 25.0007C34.5257 30.254 30.2521 34.5276 24.9993 34.5276Z" fill="white"/>
<path d="M28.5806 21.1322L22.7929 26.9198L21.222 25.3489C20.6491 24.776 19.7202 24.776 19.1472 25.3489C18.5746 25.9219 18.5746 26.8508 19.1472 27.4234L21.7557 30.0318C22.0422 30.3183 22.4176 30.4614 22.7929 30.4614C23.1683 30.4614 23.5437 30.3183 23.8301 30.0318L30.6554 23.2066C31.228 22.6336 31.228 21.7047 30.6554 21.1322C30.0824 20.5588 29.1535 20.5588 28.5806 21.1322Z" fill="white"/>
</g>
<defs>
<clipPath id="clip0_0_110">
<rect width="50" height="50" fill="white"/>
</clipPath>
</defs>
</svg>
