<svg width="144" height="103" viewBox="0 0 144 103" fill="none" xmlns="http://www.w3.org/2000/svg">
<path d="M95.8749 17.8307L97.4826 16.9834L97.17 18.7672L98.4651 20.0159L96.6788 20.2834L95.8749 21.8889L95.071 20.2834L93.2847 20.0159L94.5798 18.7672L94.3118 16.9834L95.8749 17.8307Z" fill="#29ABE2"/>
<path d="M88.2381 34.2418L90.0691 33.2607L89.7118 35.3121L91.1856 36.6946L89.1759 37.0067L88.2381 38.8351L87.3449 37.0067L85.3352 36.6946L86.809 35.3121L86.4517 33.2607L88.2381 34.2418Z" fill="#29ABE2"/>
<path d="M61.2192 39.8159L63.4522 38.6118L63.0056 41.1091L64.8366 42.8929L62.3357 43.2497L61.2192 45.5241L60.1027 43.2497L57.5571 42.8929L59.3882 41.1091L58.9416 38.6118L61.2192 39.8159Z" fill="#29ABE2"/>
<path d="M97.6165 70.8097L99.4475 69.8286L99.0902 71.88L100.564 73.2624L98.5543 73.5746L97.6165 75.403L96.7233 73.5746L94.7136 73.2624L96.1874 71.88L95.8301 69.8286L97.6165 70.8097Z" fill="#29ABE2"/>
<path d="M120.169 53.1501C119.857 53.1501 119.544 53.1055 119.232 53.1055C113.113 53.1055 107.218 55.6028 102.976 60.0177C99.0903 58.2785 94.803 57.4312 90.5603 57.565C87.1216 57.6988 83.7274 58.4123 80.6013 59.7947C77.7431 57.4758 74.2597 56.0042 70.6423 55.5136C69.5704 55.5136 68.4539 55.4244 67.3821 55.3352C63.8094 55.4244 60.3259 56.4501 57.2445 58.3231C56.2619 57.8325 55.2348 57.3866 54.2076 57.0298C51.1708 55.915 47.9107 55.3352 44.6505 55.3352C40.2739 55.3352 35.942 56.3609 32.0566 58.3231C28.8411 56.3609 25.179 55.3352 21.4277 55.3352C10.2182 55.3352 1.10767 64.4326 1.10767 75.626C1.10767 75.7152 1.10767 75.7598 1.10767 75.849H2.89404C2.89404 75.7598 2.89404 75.7152 2.89404 75.626C2.89404 65.4137 11.2007 57.119 21.4277 57.119C25.0451 57.119 28.5285 58.1447 31.5207 60.1069L31.9673 60.3745L32.4139 60.1069C36.1652 58.1447 40.3632 57.0744 44.6505 57.0744C48.9378 57.0744 53.1358 58.1001 56.8872 60.1069L57.3338 60.3745L57.4231 60.3299L57.7804 60.1069C60.7725 58.1447 64.3006 57.119 67.8734 57.119C72.25 57.119 76.5373 58.6799 79.8421 61.5339L80.2887 61.8907L80.8246 61.6677C83.9061 60.2853 87.2109 59.4826 90.6496 59.3934C94.8923 59.2596 99.0009 60.1069 102.842 61.9353L103.422 62.2029L103.869 61.7123C107.71 57.4758 113.113 55.0231 118.83 54.9339C118.964 54.9339 119.142 54.9339 119.276 54.9339C130.709 54.9339 140.043 64.2542 140.043 75.6706C140.043 75.7598 140.043 75.8044 140.043 75.8936H141.829C141.829 75.8044 141.829 75.7598 141.829 75.6706C141.785 63.4961 132.183 53.596 120.169 53.1501Z" fill="#29ABE2"/>
<path d="M90.5604 57.5648C94.803 57.431 99.0903 58.2338 102.976 60.0176C107.218 55.6026 113.113 53.1053 119.232 53.1053C119.544 53.1053 119.857 53.1053 120.17 53.1499C130.039 39.4146 129.861 21.086 118.339 8.10885C115.882 5.34396 113.113 3.02501 110.077 1.10742C117.356 16.2252 112.979 34.9105 98.2418 46.3715C90.1138 52.6594 80.2888 55.6918 70.6423 55.5135C74.2597 56.004 77.6985 57.4756 80.6014 59.7946C83.7722 58.4567 87.1216 57.6986 90.5604 57.5648Z" fill="#29ABE2"/>
<path d="M67.3821 55.3353C60.9065 54.7555 54.6542 52.7042 49.1611 49.3149C50.4563 52.0352 52.1533 54.6218 54.2076 57.0299C55.2348 57.3867 56.262 57.8326 57.2445 58.3232C60.2813 56.4502 63.7647 55.4245 67.3821 55.3353Z" fill="#29ABE2"/>
<path d="M67.8733 55.335C67.6947 55.335 67.5161 55.335 67.3821 55.335C68.4539 55.4242 69.5704 55.5133 70.6422 55.5133C69.7044 55.3796 68.8112 55.335 67.8733 55.335Z" fill="#29ABE2"/>
<path d="M47.6873 68.4013L49.2057 67.5986L48.8931 69.2486L50.0989 70.4081L48.4465 70.6757L47.6873 72.1473L46.9727 70.6757L45.3203 70.4081L46.5261 69.2486L46.2135 67.5986L47.6873 68.4013Z" fill="#29ABE2"/>
<path d="M70.9996 66.7068L72.652 65.8149L72.3394 67.6879L73.6792 68.9812L71.8035 69.2488L70.9996 70.9434L70.1511 69.2488L68.2754 68.9812L69.6598 67.6879L69.3026 65.8149L70.9996 66.7068Z" fill="#29ABE2"/>
<path d="M115.302 80.3978L116.686 79.6396L116.418 81.2005L117.535 82.2708L116.016 82.4937L115.302 83.8762L114.632 82.4937L113.113 82.2708L114.185 81.2005L113.962 79.6396L115.302 80.3978Z" fill="#29ABE2"/>
<path d="M27.5905 72.2366L18.7927 87.1314L15.9345 85.4368L21.4722 76.1164L10.3967 82.1813L7.94043 80.7097L16.7383 65.8149L19.5965 67.5096L13.8801 77.1421L25.2236 70.8542L27.5905 72.2366Z" fill="#29ABE2"/>
<path d="M32.1012 86.8191L38.2196 80.219L40.2292 80.8433L39.5593 93.9989L36.5672 93.107L37.1031 85.4366L31.2527 91.5016L30.0022 91.1002L28.6178 82.8501L24.7771 89.5394L21.7849 88.6475L28.5731 77.3203L30.5828 77.9446L32.1012 86.8191Z" fill="#29ABE2"/>
<path d="M44.7397 94.6681L41.5688 94.1775L43.5785 81.5571L54.654 83.2963L52.6444 95.9167L49.4736 95.4262L50.992 85.8383L46.2581 85.0801L44.7397 94.6681Z" fill="#29ABE2"/>
<path d="M68.7665 91.5016L58.4502 90.9218C58.5396 91.8583 58.8968 92.5718 59.5221 93.1516C60.1473 93.7313 60.9512 94.0435 61.9337 94.0881C63.1395 94.1773 64.1666 93.7759 65.1045 93.0178L67.7394 94.4448C67.0248 95.3813 66.1763 96.0057 65.1938 96.407C64.2113 96.8084 63.0948 96.9868 61.7997 96.8976C59.79 96.7638 58.1823 96.0503 57.0211 94.7124C55.8153 93.3746 55.2794 91.7691 55.4134 89.8515C55.5027 87.8894 56.2619 86.3285 57.5571 85.1245C58.8968 83.9204 60.5046 83.3407 62.3803 83.4745C64.3899 83.6082 65.9977 84.3218 67.2035 85.6596C68.4093 86.9975 68.9452 88.7367 68.8112 90.8772L68.7665 91.5016ZM65.6851 88.7813C65.5064 88.0677 65.1491 87.4434 64.5239 86.9529C63.9433 86.4623 63.2288 86.1948 62.3803 86.1502C61.4871 86.1056 60.6832 86.3285 59.9687 86.7745C59.5221 87.0421 59.1201 87.5772 58.7182 88.3799L65.6851 88.7813Z" fill="#29ABE2"/>
<path d="M73.4557 84.0097L73.5004 85.4368C74.0363 84.8124 74.6615 84.3665 75.3314 84.0543C76.0013 83.7422 76.7159 83.5638 77.4751 83.5192C79.1275 83.43 80.6012 84.0097 81.807 85.2138C83.0128 86.4179 83.6827 88.0233 83.772 89.9855C83.8614 91.9031 83.3254 93.5085 82.1643 94.8463C81.0032 96.1842 79.6187 96.8977 77.9663 96.9423C77.2071 96.9869 76.5372 96.8531 75.912 96.6302C75.2868 96.4072 74.6169 96.0058 73.947 95.4261L74.2149 101.446L71.0441 101.58L70.3296 84.1435L73.4557 84.0097ZM76.9392 86.5071C75.912 86.5517 75.1081 86.9084 74.4829 87.6665C73.8577 88.3801 73.5451 89.3166 73.5897 90.4314C73.6344 91.5463 73.9917 92.4828 74.7062 93.1517C75.4208 93.8207 76.2693 94.1328 77.2518 94.0882C78.2343 94.0436 79.0382 93.6423 79.6634 92.9288C80.2886 92.1706 80.6012 91.2787 80.5566 90.1639C80.5119 89.049 80.1546 88.2017 79.4401 87.4882C78.7255 86.7746 77.9217 86.4625 76.9392 86.5071Z" fill="#29ABE2"/>
<path d="M88.104 95.8722L86.407 96.0952L84.6206 83.4301L87.7021 82.9842L88.7739 90.4316L94.2224 82.0477L95.7408 81.8247L97.5272 94.4897L94.4457 94.9357L93.4185 87.6667L88.104 95.8722Z" fill="#29ABE2"/>
<path d="M106.548 79.1935L109.674 78.3462L112.979 90.699L109.853 91.5463L109.496 90.2531C109.049 91.0112 108.558 91.5463 108.022 91.9923C107.486 92.3937 106.861 92.7058 106.146 92.8842C104.538 93.3302 103.02 93.0626 101.502 92.1261C99.9832 91.1896 99.0007 89.8071 98.5095 87.9787C98.0182 86.0611 98.1522 84.3665 98.9561 82.8503C99.76 81.3341 100.966 80.353 102.573 79.907C103.333 79.7286 104.047 79.684 104.762 79.7732C105.476 79.8624 106.191 80.13 106.905 80.5313L106.548 79.1935ZM103.958 82.5827C103.02 82.8503 102.306 83.3854 101.859 84.2327C101.412 85.0801 101.323 86.0165 101.591 87.0868C101.859 88.1571 102.44 88.9598 103.243 89.4504C104.092 89.9855 104.94 90.1193 105.923 89.8517C106.905 89.5842 107.62 89.049 108.067 88.2017C108.513 87.3544 108.602 86.3733 108.335 85.303C108.067 84.2327 107.486 83.43 106.682 82.9395C105.834 82.4489 104.94 82.3152 103.958 82.5827Z" fill="#29ABE2"/>
<path d="M132.629 80.9772L121.911 72.6379L124.412 86.0164L121.42 87.8448L118.07 69.6054L120.929 67.8662L135.666 79.1488L132.629 80.9772Z" fill="#29ABE2"/>
</svg>
